<svg width="1366" height="769" xmlns="http://www.w3.org/2000/svg" xmlns:xlink="http://www.w3.org/1999/xlink" data-name="Group 2">
 <defs>
  <linearGradient gradientUnits="objectBoundingBox" y2="1.389" x2="-0.717" y1="0.101" x1="1.193" id="linear-gradient">
   <stop stop-color="#000000" offset="0"/>
   <stop stop-color="#398bf7" offset="0.498"/>
   <stop stop-color="#04CDF0" offset="0.647"/>
   <stop stop-color="#398bf7" offset="0.863"/>
   <stop stop-color="#000000" offset="1"/>
  </linearGradient>
  <linearGradient gradientUnits="objectBoundingBox" y2="1.068" x2="0.189" y1="0.022" x1="1.171" id="linear-gradient-2">
   <stop stop-opacity="0.6" stop-color="#000" offset="0"/>
   <stop stop-opacity="0.051" stop-color="#000" offset="0.686"/>
   <stop stop-opacity="0" stop-color="#000" offset="1"/>
  </linearGradient>
  <linearGradient xlink:href="#linear-gradient" y2="1.476" x2="0.209" y1="0.078" x1="0.699" id="linear-gradient-3"/>
  <linearGradient xlink:href="#linear-gradient" y2="2.248" x2="0.032" y1="-5.297" x1="2.48" id="linear-gradient-4"/>
  <linearGradient xlink:href="#linear-gradient" y2="2.068" x2="0.017" y1="-4.879" x1="2.465" id="linear-gradient-5"/>
  <linearGradient xlink:href="#linear-gradient-2" y2="0.5" x2="1" y1="0.5" x1="0" id="linear-gradient-6"/>
 </defs>
 <g>
  <title>Layer 1</title>
  <path transform="rotate(-180 324.372 385.739)" fill="url(#linear-gradient)" d="m104.51515,771.65734l540.507,0l0,-769l-578.33,0c-34.018,19.44 7.231,-32.407 -24.339,25.824c-46.16,85.132 -57.327,214.893 2,262c67.775,53.815 88.199,45.531 152.169,92.676c71.738,52.87 78.814,222.855 -4,323c-25.645,31.011 -56.932,51.7 -88.007,65.5z" data-name="Path 2" id="Path_2"/>
  <path fill="url(#linear-gradient-2)" opacity="0.3" d="m1238.39159,194.98599c15.286,107.84 67.584,118.235 80,206c17.149,121.223 -59.333,264.966 -124,264c-47.963,-0.716 -26.671,-130.619 -132,-228c-77.4,-71.562 -197.516,-104.326 -228,-70c-5.268,5.932 -7.568,13.54 -7.932,22.159c36.815,-9.023 72.151,-14.765 99.432,5.341c51.19,37.726 69.442,135.081 45.617,224.144a994.57,994.57 0 0 1 72.883,80.356c31.9,39.344 47.912,65.3 60.586,84l269.414,0l0,-769l-109.987,0c-33.066,44.995 -33.504,128.156 -26.013,181z" data-name="Path 3" id="Path_3"/>
  <path fill="url(#linear-gradient-3)" opacity="0.14" d="m354.425,250.868c3.09,-22 -44.15,-65.247 -90.1,-79.993c-13.042,-4.185 -88.4,-28.369 -114.082,36.36c-5.543,13.973 -16.084,46.978 -5.814,60.6c9.575,12.7 56.678,9.7 122.8,-13.333c69.707,-24.274 85.304,9.84 87.196,-3.634z" data-name="Path 4" id="Path_4"/>
  <path transform="rotate(-180 1084.36 65.6269)" fill="url(#linear-gradient-4)" d="m1102.49866,2.73882c-114.359,-14.23 -240.6,29.614 -302.5,77.58l0,50.92l568.728,0c-85.86,-40.69 -146.415,-113.591 -266.228,-128.5z" data-name="Path 5" id="Path_5"/>
  <path transform="rotate(-180 1102.42 63.2123)" fill="url(#linear-gradient-5)" opacity="0.19" d="m840.55807,46.46744l0,79.163l523.728,0c-85.86,-40.69 -174.364,-106.604 -294.177,-121.513c-91.15,-11.342 -161.9,7.223 -229.551,42.35z" data-name="Path 6" id="Path_6"/>
  <circle opacity="0.2" fill="#000" r="11.5" cy="86.5" cx="1107.5" data-name="Ellipse 1" id="Ellipse_1"/>
  <circle opacity="0.12" fill="#000" r="3" cy="365" cx="752" data-name="Ellipse 2" id="Ellipse_2"/>
  <circle opacity="0.2" fill="#000" r="8" cy="412" cx="1126" data-name="Ellipse 3" id="Ellipse_3"/>
  <circle opacity="0.13" fill="#000" r="7" cy="42" cx="782" data-name="Ellipse 4" id="Ellipse_4"/>
  <path fill="url(#linear-gradient-6)" opacity="0.3" d="m940.813,222.282c27.106,-49.532 13.91,-119.492 -20,-138c-25.707,-14.031 -48.9,9.377 -72,-6c-22.227,-14.8 -19.04,-48.639 -19.675,-73.317c-10.948,13.324 -20.6,27.661 -28.825,42.817c-18.479,34.08 -31.341,75.311 -36.327,115.529c9.498,9.174 17.234,20.01 22.827,31.971c20.979,43.72 3.722,69.376 23,84c27.767,21.064 101.612,-3.3 131,-57z" data-name="Path 7" id="Path_7"/>
 </g>
</svg>