<?xml version="1.0" encoding="utf-8"?>
<svg id="Group_2" data-name="Group 2" width="1366" height="769" viewBox="0 0 1366 769" xmlns="http://www.w3.org/2000/svg" xmlns:xlink="http://www.w3.org/1999/xlink">
  <defs>
    <linearGradient id="linear-gradient" x1="1.193" y1="0.101" x2="-0.717" y2="1.389" gradientUnits="objectBoundingBox">
      <stop offset="0" stop-color="#000000"/>
      <stop offset="0.498" stop-color="#398bf7"/>
      <stop offset="0.647" stop-color="#04CDF0"/>
      <stop offset="0.863" stop-color="#398bf7"/>
      <stop offset="1" stop-color="#000000"/>
    </linearGradient>
    <linearGradient id="linear-gradient-2" x1="1.171" y1="0.022" x2="0.189" y2="1.068" gradientUnits="objectBoundingBox">
      <stop offset="0" stop-color="#000" stop-opacity="0.6"/>
      <stop offset="0.686" stop-color="#000" stop-opacity="0.051"/>
      <stop offset="1" stop-color="#000" stop-opacity="0"/>
    </linearGradient>
    <linearGradient id="linear-gradient-3" x1="0.699" y1="0.078" x2="0.209" y2="1.476" xlink:href="#linear-gradient"/>
    <linearGradient id="linear-gradient-4" x1="2.48" y1="-5.297" x2="0.032" y2="2.248" xlink:href="#linear-gradient"/>
    <linearGradient id="linear-gradient-5" x1="2.465" y1="-4.879" x2="0.017" y2="2.068" xlink:href="#linear-gradient"/>
    <linearGradient id="linear-gradient-6" x1="0" y1="0.5" x2="1" y2="0.5" xlink:href="#linear-gradient-2"/>
  </defs>
  <path id="Path_2" data-name="Path 2" d="M 825.493 769 L 1366 769 L 1366 0 L 787.67 0 C 753.652 19.44 794.901 -32.407 763.331 25.824 C 717.171 110.956 706.004 240.717 765.331 287.824 C 833.106 341.639 853.53 333.355 917.5 380.5 C 989.238 433.37 996.314 603.355 913.5 703.5 C 887.855 734.511 856.568 755.2 825.493 769 Z" fill="url(#linear-gradient)"/>
  <path id="Path_3" data-name="Path 3" d="M1230,181c15.286,107.84,67.584,118.235,80,206,17.149,121.223-59.333,264.966-124,264-47.963-.716-26.671-130.619-132-228-77.4-71.562-197.516-104.326-228-70-5.268,5.932-7.568,13.54-7.932,22.159,36.815-9.023,72.151-14.765,99.432,5.341,51.19,37.726,69.442,135.081,45.617,224.144A994.57,994.57,0,0,1,1036,685c31.9,39.344,47.912,65.3,60.586,84H1366V0H1256.013C1222.947,44.995,1222.509,128.156,1230,181Z" opacity="0.3" fill="url(#linear-gradient-2)"/>
  <path id="Path_4" data-name="Path 4" d="M354.425,250.868c3.09-22-44.15-65.247-90.1-79.993-13.042-4.185-88.4-28.369-114.082,36.36-5.543,13.973-16.084,46.978-5.814,60.6,9.575,12.7,56.678,9.7,122.8-13.333C336.936,230.228,352.533,264.342,354.425,250.868Z" opacity="0.14" fill="url(#linear-gradient-3)"/>
  <path id="Path_5" data-name="Path 5" d="M302.5,640.5C188.141,626.27,61.9,670.114,0,718.08V769H568.728C482.868,728.31,422.313,655.409,302.5,640.5Z" fill="url(#linear-gradient-4)"/>
  <path id="Path_6" data-name="Path 6" d="M 0 675.837 L 0 755 L 523.728 755 C 437.868 714.31 349.364 648.396 229.551 633.487 C 138.401 622.145 67.651 640.71 0 675.837 Z" opacity="0.19" fill="url(#linear-gradient-5)"/>
  <circle id="Ellipse_1" data-name="Ellipse 1" cx="11.5" cy="11.5" r="11.5" transform="translate(1096 75)" fill="#000" opacity="0.2"/>
  <circle id="Ellipse_2" data-name="Ellipse 2" cx="3" cy="3" r="3" transform="translate(749 362)" fill="#000" opacity="0.12"/>
  <circle id="Ellipse_3" data-name="Ellipse 3" cx="8" cy="8" r="8" transform="translate(1118 404)" fill="#000" opacity="0.2"/>
  <circle id="Ellipse_4" data-name="Ellipse 4" cx="7" cy="7" r="7" transform="translate(775 35)" fill="#000" opacity="0.13"/>
  <path id="Path_7" data-name="Path 7" d="M 940.813 222.282 C 967.919 172.75 954.723 102.79 920.813 84.282 C 895.106 70.251 871.913 93.659 848.813 78.282 C 826.586 63.482 829.773 29.643 829.138 4.965 C 818.19 18.289 808.538 32.626 800.313 47.782 C 781.834 81.862 768.972 123.093 763.986 163.311 C 773.484 172.485 781.22 183.321 786.813 195.282 C 807.792 239.002 790.535 264.658 809.813 279.282 C 837.58 300.346 911.425 275.982 940.813 222.282 Z" opacity="0.3" fill="url(#linear-gradient-6)"/>
</svg>