<svg width="187" height="172" viewBox="0 0 187 172" fill="none" xmlns="http://www.w3.org/2000/svg">
<circle cx="86.5" cy="28.5" r="20.5" fill="white"/>
<path d="M137.584 153H134.152C133.848 153 133.592 152.912 133.384 152.736C133.192 152.544 133.08 152.328 133.048 152.088L130.84 136.8V136.728C130.84 136.584 130.888 136.464 130.984 136.368C131.096 136.256 131.224 136.2 131.368 136.2H135.832C136.36 136.2 136.648 136.416 136.696 136.848L137.512 143.616L138.496 140.616C138.656 140.152 138.928 139.92 139.312 139.92H141.76C142.144 139.92 142.416 140.152 142.576 140.616L143.56 143.592L144.376 136.848C144.424 136.416 144.712 136.2 145.24 136.2H149.704C149.848 136.2 149.968 136.256 150.064 136.368C150.176 136.464 150.232 136.584 150.232 136.728V136.8L148.024 152.088C147.992 152.328 147.872 152.544 147.664 152.736C147.472 152.912 147.224 153 146.92 153H143.488C142.992 153 142.664 152.784 142.504 152.352L140.536 147.432L138.568 152.352C138.408 152.784 138.08 153 137.584 153ZM166.862 148.176H159.71V148.296C159.71 149.272 160.022 149.76 160.646 149.76C160.822 149.76 161.038 149.632 161.294 149.376C161.55 149.12 161.83 148.992 162.134 148.992H166.67C167.022 148.992 167.198 149.168 167.198 149.52C167.198 150.304 166.606 151.12 165.422 151.968C164.254 152.816 162.662 153.24 160.646 153.24C158.646 153.24 157.006 152.72 155.726 151.68C154.462 150.624 153.83 149.176 153.83 147.336V146.184C153.83 144.44 154.478 143.024 155.774 141.936C157.07 140.832 158.766 140.28 160.862 140.28C162.974 140.28 164.606 140.896 165.758 142.128C166.926 143.36 167.51 144.92 167.51 146.808V147.528C167.51 147.704 167.446 147.856 167.318 147.984C167.19 148.112 167.038 148.176 166.862 148.176ZM161.63 145.08C161.63 144.12 161.31 143.64 160.67 143.64C160.03 143.64 159.71 144.12 159.71 145.08V145.176H161.63V145.08ZM185.478 145.8V147.696C185.478 149.584 185.006 150.984 184.062 151.896C183.118 152.792 181.886 153.24 180.366 153.24C178.846 153.24 177.67 152.704 176.838 151.632V152.352C176.838 152.528 176.774 152.68 176.646 152.808C176.518 152.936 176.366 153 176.19 153H172.11C171.934 153 171.782 152.936 171.654 152.808C171.526 152.68 171.462 152.528 171.462 152.352V136.608C171.462 136.432 171.526 136.28 171.654 136.152C171.782 136.024 171.934 135.96 172.11 135.96H176.55C176.726 135.96 176.878 136.024 177.006 136.152C177.134 136.28 177.198 136.432 177.198 136.608V141.408C178.03 140.656 179.134 140.28 180.51 140.28C181.902 140.28 183.078 140.752 184.038 141.696C184.998 142.64 185.478 144.008 185.478 145.8ZM177.198 147.552C177.198 148.48 177.598 148.944 178.398 148.944C179.198 148.944 179.598 148.48 179.598 147.552V145.968C179.598 145.04 179.198 144.576 178.398 144.576C177.646 144.576 177.246 144.976 177.198 145.776V147.552Z" fill="white"/>
<path fill-rule="evenodd" clip-rule="evenodd" d="M29 115C27.1581 115 25.3564 114.828 23.6098 114.5C10.1692 117.026 0 128.826 0 143C0 159.016 12.9837 172 29 172C43.0067 172 54.6941 162.07 57.4064 148.866C57.1392 147.284 57 145.658 57 144C57 127.984 69.9837 115 86 115C102.016 115 115 127.984 115 144C115 145.658 114.861 147.284 114.594 148.866C117.306 162.07 128.993 172 143 172C155.274 172 165.766 164.375 170 153.604V149.5L169.5 150.5L168.5 152.5L165 155L160.5 156L156.5 155L153 153L151.5 150L151 147.5L150 156H142L140.5 154L139.5 156H131L127 134H138L138.5 138.5H142.5L143.5 134H153.5L152 142L154 139.5L156.5 138L161.5 137.5L165.5 138.5L168 140.5L170 143.5V134H170.576C167.331 124.051 158.852 116.466 148.39 114.5C146.644 114.828 144.842 115 143 115C126.984 115 114 102.016 114 86C114 69.9837 126.984 57 143 57C144.842 57 146.644 57.1717 148.39 57.5C161.831 54.9736 172 43.1744 172 29C172 12.9837 159.016 0 143 0C128.826 0 117.026 10.1692 114.5 23.6098C114.828 25.3564 115 27.1581 115 29C115 45.0163 102.016 58 86 58C69.9837 58 57 45.0163 57 29C57 27.1581 57.1717 25.3564 57.5 23.6098C54.9736 10.1692 43.1744 0 29 0C12.9837 0 0 12.9837 0 29C0 43.1744 10.1692 54.9736 23.6098 57.5C25.3564 57.1717 27.1581 57 29 57C45.0163 57 58 69.9837 58 86C58 102.016 45.0163 115 29 115ZM88.714 67.4281C86.1105 70.0316 86.1105 74.2527 88.714 76.8562L98.1421 86.2843L107.567 76.8598L107.57 76.8562C110.174 74.2527 110.174 70.0316 107.57 67.4281C104.967 64.8246 100.746 64.8246 98.1421 67.4281C95.5386 64.8246 91.3175 64.8246 88.714 67.4281Z" fill="white"/>
</svg>
